<svg xmlns="http://www.w3.org/2000/svg" width="31.523" height="31.29" viewBox="0 0 31.523 31.29">
  <defs>
    <style>
      .cls-1 {
        fill: none;
        stroke: #64feda;
      }
    </style>
  </defs>
  <path id="github" class="cls-1" d="M15.262,0a15.26,15.26,0,0,0-3.7,30.065,2.061,2.061,0,0,1-.114-.725v-2.6H9.539a2.607,2.607,0,0,1-2.4-1.3c-.5-.916-.573-2.328-1.831-3.206-.382-.305-.077-.61.343-.573a4,4,0,0,1,2.06,1.564,1.948,1.948,0,0,0,2.022.992,15.385,15.385,0,0,0,2.137-.153,4.73,4.73,0,0,1,2.022-2.48c-5.112-.61-7.554-3.129-7.554-6.563A6.3,6.3,0,0,1,8.05,10.908c-.343-1.183-.8-3.625.153-4.578A5.415,5.415,0,0,1,12.209,8.2a11.749,11.749,0,0,1,3.7-.61,11.565,11.565,0,0,1,3.7.61,5.414,5.414,0,0,1,4.006-1.869c.916.916.5,3.4.114,4.578a6.179,6.179,0,0,1,1.679,4.121c0,3.434-2.4,5.953-7.478,6.487a5.307,5.307,0,0,1,2.4,4.311V29.3c0,.114-.038.229-.038.343A15.248,15.248,0,0,0,15.262,0Z" transform="translate(0.5 0.5)"/>
</svg>
