<svg xmlns="http://www.w3.org/2000/svg" width="20.992" height="20.104" viewBox="0 0 20.992 20.104">
  <defs>
    <style>
      .cls-1 {
        fill: #a8b2d1;
        stroke: #a8b2cf;
      }
    </style>
  </defs>
  <path id="linkedin" class="cls-1" d="M0,7.219A2.078,2.078,0,0,1,.675,5.627,2.478,2.478,0,0,1,2.431,5a2.4,2.4,0,0,1,1.717.618,2.177,2.177,0,0,1,.675,1.66,2.032,2.032,0,0,1-.656,1.544,2.482,2.482,0,0,1-1.775.637H2.374A2.362,2.362,0,0,1,.656,8.821,2.139,2.139,0,0,1,0,7.219ZM.251,24.1V11.214H4.535V24.1Zm6.658,0h4.284v-7.2a2.512,2.512,0,0,1,.975-2.152,2.1,2.1,0,0,1,1.38-.453q2.161,0,2.161,2.914V24.1h4.284V16.713a6.211,6.211,0,0,0-1.351-4.332,4.608,4.608,0,0,0-3.57-1.476,4.379,4.379,0,0,0-3.879,2.142v.039h-.019l.019-.039V11.214H6.908q.039.618.039,3.84T6.908,24.1Z" transform="translate(0.5 -4.5)"/>
</svg>
