<svg id="logo_v1" xmlns="http://www.w3.org/2000/svg" width="328" height="72.665" viewBox="0 0 328 72.665">
  <defs>
    <style>
      .cls-1 {
        fill: #bf5630;
      }

      .cls-2 {
        fill: #f2f2f2;
      }
    </style>
  </defs>
  <path id="Path_3" data-name="Path 3" class="cls-1" d="M129.43,302.92c0-.669.187-.742.842-1.217a54.337,54.337,0,0,1,8.144-4.487c.749-.374.936.368,1.217.936,1.03,2.059,9.08,12.7,13.48,12.7.749,0,1.591-.562,1.591-2.527,0-12.912-5.71-16.1-12.918-19.464-5.429-2.534-10.578-6.74-10.578-20.882,0-5.891,14.135-15.813,17.6-15.813,3.932,0,11.982,11.42,16.756,16.195.669.669.281.929-.374,1.337-3,1.685-5.349,3.464-7.489,3.838-1.966.374-3.343-.468-4.774-2.534-3.744-5.423-6.927-8.98-9.455-8.98-.842,0-1.591.669-1.591,2.614,0,8.987,3,13.373,9.735,16.576,5.349,2.527,14.71,6.365,14.71,22.654,0,4.306-13.012,16.475-16.475,16.475C143.378,320.338,129.43,307.139,129.43,302.92Z" transform="translate(-79.663 -247.797)"/>
  <path id="Path_4" data-name="Path 4" class="cls-1" d="M249.291,265.2v52.228c0,1.03,0,1.966-1.337,1.872a75,75,0,0,0-9.174-.094c-1.337.094-1.337-.749-1.337-1.779V268.668c0-3.343-7.4-7.589-9.548-7.589-.842,0-1.217.475-1.217,1.337v55.043c0,1.03,0,1.966-1.337,1.872a75,75,0,0,0-9.174-.094c-1.337.094-1.337-.749-1.337-1.779V268.668c0-3.343-7.4-7.589-9.548-7.589-.843,0-1.217.475-1.217,1.337v55.043c0,1.03,0,1.966-1.337,1.872a75.028,75.028,0,0,0-9.174-.094c-1.337.094-1.337-.749-1.337-1.779V264.268c0-2.9-.562-4.681-2.527-6.272-.562-.468-.468-1.03.468-1.337a37.719,37.719,0,0,0,8.692-3.932c.669-.374.936-.094,1.591.669,1.337,1.5,1.966,2.9,2.527,2.9.749,0,6.272-3.838,8.425-3.838,1.337,0,5.149,2.059,8.612,4.58.936.756,1.591,1.337,2.059,1.337.749,0,9.267-5.9,11.889-5.9S249.291,260.43,249.291,265.2Z" transform="translate(-99.514 -247.893)"/>
  <path id="Path_5" data-name="Path 5" class="cls-1" d="M293.23,306.3V267.271c0-4.313,14.135-15.071,17.6-15.071,3.932,0,18.629,9.829,18.629,14.042V305.27c0,4.306-14.135,15.078-17.6,15.078C307.927,320.348,293.23,310.519,293.23,306.3Zm24.432,3.744V270.267c0-2.34-9.829-9.08-11.42-9.08-.749,0-1.217.562-1.217,1.591v39.778c0,2.34,9.829,9.08,11.514,9.08C317.194,311.636,317.662,311.074,317.662,310.044Z" transform="translate(-133.939 -247.807)"/>
  <path id="Path_6" data-name="Path 6" class="cls-1" d="M397.962,316.453c-2.153,1.779-4.961,2.534-7.863,4.012-.749.368-1.337,0-1.779-.756-3-4.774-7.3-21.8-9.267-29.675-.187-.742-.749-.742-1.123-.187l-4.493,7.208a3.2,3.2,0,0,0-.842,1.966v18.441c0,1.03,0,1.966-1.337,1.872a75.016,75.016,0,0,0-9.174-.094c-1.337.094-1.337-.749-1.337-1.779V264.319c0-2.9-.562-4.68-2.527-6.272-.562-.468-.468-1.03.468-1.337a72,72,0,0,0,8.893-3.932c.669-.374.936-.094,1.591.669,2.715,3.089,3.343,4.306,3.343,7.669v21.845c0,.749.562,1.585.936.936l9.923-17.137c2.808-4.861,3.183-9.261,1.337-11.982-.374-.555-.669-1.337.281-1.337,2.527,0,7.582.562,10.11-.094.749-.187,1.5-.187,1.591.669.281,2.808-1.779,8.418-5.055,13.754l-4.868,7.776a4.092,4.092,0,0,0-.468,3.464c2.153,8.418,8.8,30.417,12.357,34.91C399.647,315.143,398.9,315.725,397.962,316.453Z" transform="translate(-155.358 -247.944)"/>
  <path id="Path_7" data-name="Path 7" class="cls-1" d="M438.838,255.749V317.9c0,1.03,0,1.966-1.337,1.872a75,75,0,0,0-9.174-.094c-1.337.094-1.337-.749-1.337-1.779v-62.15c0-1.03,0-1.872,1.337-1.779a75,75,0,0,0,9.174-.094C438.838,253.783,438.838,254.719,438.838,255.749Z" transform="translate(-178.261 -248.36)"/>
  <path id="Path_8" data-name="Path 8" class="cls-1" d="M494.667,265.2v52.228c0,1.03,0,1.966-1.337,1.872a75,75,0,0,0-9.174-.094c-1.337.094-1.337-.749-1.337-1.779V268.668c0-3.343-7.4-7.589-9.548-7.589-.842,0-1.217.475-1.217,1.337v55.043c0,1.03,0,1.966-1.337,1.872a75.027,75.027,0,0,0-9.174-.094c-1.337.094-1.337-.749-1.337-1.779V264.268c0-2.9-.562-4.681-2.527-6.272-.562-.468-.468-1.03.468-1.337a37.72,37.72,0,0,0,8.692-3.932c.669-.374.936-.094,1.591.669,1.337,1.5,1.966,2.9,2.527,2.9.749,0,6.272-3.838,8.425-3.838C482.123,252.473,494.667,260.43,494.667,265.2Z" transform="translate(-188.314 -247.893)"/>
  <path id="Path_9" data-name="Path 9" class="cls-1" d="M529.734,274.637c.842-1.779,4.012-5.349,3.276-7.589-.936-2.9-3.744-1.678-4.306-1.585s-1.685-.094-1.779-1.036c-.281-2.614.094-6.359-.187-9.167a1.117,1.117,0,0,1,1.03-1.337,66.282,66.282,0,0,0,8.612-.374,1.8,1.8,0,0,1,1.779.749c1.4,2.715,1.123,4.681,1.123,7.4,0,7.669-3.464,15.446-8.331,15.446C529.734,277.164,529.266,275.573,529.734,274.637Z" transform="translate(-211.305 -248.245)"/>
  <path id="Path_10" data-name="Path 10" class="cls-2" d="M91.247,342.837H64.308c-2.835,0-9.308-9.308-9.308-11.588,0-2.588,8.2-8.753,9.8-11.16.247-.368.555.067.8.555.8,1.6,1.337,2.962,2.153,4.995a2.509,2.509,0,0,1-.923,3.2c-1.17,1.05-4.132,3.457-5.349,5.429-.247.428.368.8,1.05.8H88.9c1.545,0,4.747-6.158,4.747-7.268,0-.435-.368-.742-1.05-.742H82c-.308,0-.435.187-.495.495a13.046,13.046,0,0,0,0,3.818c.06.374-.247.495-.555.374l-4.62-1.418a.6.6,0,0,1-.374-.622V320.4a.455.455,0,0,1,.495-.488H90.565c2.835,0,9.308,8.565,9.308,10.845C99.873,333.342,94.015,342.837,91.247,342.837Z" transform="translate(-55 -270.242)"/>
  <path id="Path_11" data-name="Path 11" class="cls-2" d="M99.277,300.971a.749.749,0,0,1-.742.742H61.372a1.337,1.337,0,0,1-1.11-.368l-3.945-4.995c-.247-.368-.555-.615-.495-1.11.12-1.17.435-5.55.435-9.555a8.464,8.464,0,0,0-.374-2.715c-.247-.368.127-.368.863-.12,1.237.435,2.835.669,4.132,1.11.742.247,1.6,1.665,1.6,3.143a15.813,15.813,0,0,1-.863,6.165c-.127.308,0,.615.181.615H74.558c.495,0,.669-.187.669-.983a59.659,59.659,0,0,0-.8-7.4c-.06-.368.187-.615.615-.488l4.681,1.538a.6.6,0,0,1,.495.615c0,1.418-.669,4.874-.669,6.292a.394.394,0,0,0,.435.428c2.006,0,9.18.06,10.972.187,1.043.06,2.675.308,2.675-.8a89.925,89.925,0,0,0-.742-10.785c-.06-.435.187-.742.742-.435a34.413,34.413,0,0,0,5.349,2.006c.368.127.368.308.368.622C99.338,287.411,99.157,297.768,99.277,300.971Z" transform="translate(-55.267 -257.656)"/>
  <path id="Path_12" data-name="Path 12" class="cls-2" d="M99.362,260.22c.06.869-.495.869-1.17.869-7.89,0-27.923.181-35.813.181a.742.742,0,0,0-.8.8,21.063,21.063,0,0,0,.8,6.472c.12.435-.12.435-.863.187l-4.44-1.418c-.669-.187-.669-.8-.8-1.792a56.57,56.57,0,0,1-.12-7.95c.06-5.61.428-9.361-.06-11.588-.127-.435.12-.435.863-.187l4.5,1.418c.669.247.669.8.669,1.792a17.172,17.172,0,0,1-.555,3.818c-.12.555.308.615.863.615,7.275,0,28.538-.06,35.752-.181.669.06,1.29,0,1.23.863a51.543,51.543,0,0,0-.053,6.1Z" transform="translate(-55.352 -245.63)"/>
</svg>
