<svg xmlns="http://www.w3.org/2000/svg" width="20.992" height="20.917" viewBox="0 0 20.992 20.917">
  <defs>
    <style>
      .cls-1 {
        fill: #a8b2d1;
        stroke: #a8b2cf;
      }
    </style>
  </defs>
  <path id="github" class="cls-1" d="M10,0A9.995,9.995,0,0,0,7.572,19.692a1.35,1.35,0,0,1-.075-.475v-1.7H6.248a1.707,1.707,0,0,1-1.575-.85c-.325-.6-.375-1.524-1.2-2.1-.25-.2-.05-.4.225-.375a2.622,2.622,0,0,1,1.349,1.024,1.276,1.276,0,0,0,1.325.65,10.077,10.077,0,0,0,1.4-.1A3.1,3.1,0,0,1,9.1,14.142c-3.348-.4-4.948-2.049-4.948-4.3a4.125,4.125,0,0,1,1.125-2.7c-.225-.775-.525-2.374.1-3A3.547,3.547,0,0,1,8,5.37a7.7,7.7,0,0,1,2.424-.4,7.575,7.575,0,0,1,2.424.4,3.546,3.546,0,0,1,2.624-1.224c.6.6.325,2.224.075,3a4.047,4.047,0,0,1,1.1,2.7c0,2.249-1.575,3.9-4.9,4.249a3.476,3.476,0,0,1,1.575,2.824v2.277c0,.075-.025.15-.025.225A9.987,9.987,0,0,0,10,0Z" transform="translate(0.5 0.5)"/>
</svg>
