<svg xmlns="http://www.w3.org/2000/svg" width="108.51" height="42" viewBox="0 0 108.51 42">
  <defs>
    <style>
      .cls-1 {
        fill: #64feda;
      }
    </style>
  </defs>
  <path id="logo_v2" class="cls-1" d="M102.343,4.4C98.528.962,92.885.06,84.755.06c-4.479,0,2.4,0-6.814-.035-7.092,0-7.583-.707-11.051,5.126l-.043.082C63.7,11.505,60.579,17.786,57.3,24.375a1.22,1.22,0,0,1-2.17.035c-.156-.286-.3-.564-.434-.842C51.135,16.423,47.636,9.244,43.969,2.156A4.05,4.05,0,0,0,41.2.151C34.316,0,27.419-.066,20.539.168c-8.82.3-15.283,4.753-18.69,12.752-3.3,7.752-2.2,15.291,3.494,21.8,5.847,6.658,13.264,8.637,21.7,6.385C37.063,38.424,43.73,27.612,41.416,18.229a1.194,1.194,0,0,0-1.163-.868c-3.794,0-7.7-.048-11.563.026a3.225,3.225,0,0,0-2.07.868c-1.159,1.2-2.248,2.465-3.52,3.945a1.215,1.215,0,0,0,.916,2.01H33.5a.925.925,0,0,1,.929.833.573.573,0,0,1,0,.178,13.694,13.694,0,0,1-15.8,9.679A13.94,13.94,0,0,1,7.123,20.017,13.847,13.847,0,0,1,20.713,7.039C25.921,6.952,31.1,7.126,36.286,7a3.4,3.4,0,0,1,3.62,2.318c1.918,4.058,4,8.043,6.077,12.027,2.995,5.8,6.024,11.58,9.28,17.8a1.215,1.215,0,0,0,2.17,0c5.2-10.191,10.712-20.3,15.921-30.261a2.769,2.769,0,0,1,2.5-1.5l9.258.109c10.6,0,16.086,3.3,16.06,12.218S96.188,34.622,85.285,34.722c-1.6,0-2.517.043-3.555,0a1.359,1.359,0,0,1-1.259-1.2V13.558a1.215,1.215,0,0,0-1.211-1.215H73.818A1.215,1.215,0,0,0,72.6,13.558V39.731a2.094,2.094,0,0,0,2.062,1.936c2.387.191,5.1.3,8.2.3,8.5,0,15.257-2.122,19.35-6.077s6.3-9.488,6.3-16.363S106.236,7.842,102.343,4.4Z" transform="translate(-0.001 0.002)"/>
</svg>
